# xmcd
# 
# Track frame offsets:
#     150
#     20666
#     33886
#     52245
#     65520
#     84836
#     106525
#     120834
#     140927
#     159155
#     171501
#     187836
#     200042
#     213625
#     226885
# 
# Disc length: 3189
# 
# Revision: 4
# Processed by: cddbd v1.5.2PL0 Copyright (c) Steve Scherf et al.
# Submitted via: fre:ac v1.0.17
# 
DISCID=c90c730f
DTITLE=Various Artist - Black Power CD3
DYEAR=2009
DGENRE=Soul
TTITLE0=Isaac Hayes and Gloria Gaynor - You're My First, My Last, My Everything
TTITLE1=Ike and Tina Turner - Nutbush City Limits
TTITLE2=Lakeside - Fantactic Voyage
TTITLE3=The Drifters - On Broadway
TTITLE4=Commodores - Easy
TTITLE5=Barry White - Just The Way You Are
TTITLE6=The Stylistics - You Are Everything
TTITLE7=Manhattens - Kiss And Say Goodbye
TTITLE8=Brook Benton - Rainy Night In Georgia
TTITLE9=Dionne Warwick - Walk On By
TTITLE10=Ray Charles - Georgia On My Mind
TTITLE11=Otis Redding - Sitting On The Dock Of The Bay
TTITLE12=Aaron Neville - Tell It Like It Is
TTITLE13=Percy Sledge - I've Been Loving You To Long
TTITLE14=Sam Cooke - You Send Me
EXTD=
EXTT0=
EXTT1=
EXTT2=
EXTT3=
EXTT4=
EXTT5=
EXTT6=
EXTT7=
EXTT8=
EXTT9=
EXTT10=
EXTT11=
EXTT12=
EXTT13=
EXTT14=
PLAYORDER=
